<?xml version="1.0" encoding="UTF-8"?>
<svg xmlns="http://www.w3.org/2000/svg" xmlns:xlink="http://www.w3.org/1999/xlink" viewBox="0 0 50 50" width="50px" height="50px">
<g id="surface61499579">
<rect x="0" y="0" width="50" height="50" style="fill:rgb(93.725491%,38.82353%,31.764707%);fill-opacity:1;stroke:none;"/>
<path style=" stroke:none;fill-rule:nonzero;fill:rgb(100%,100%,100%);fill-opacity:1;" d="M 5 11.667969 C 4.398438 11.65625 3.839844 11.972656 3.535156 12.492188 C 3.234375 13.011719 3.234375 13.65625 3.535156 14.171875 C 3.839844 14.691406 4.398438 15.007812 5 15 L 45 15 C 45.601562 15.007812 46.160156 14.691406 46.464844 14.171875 C 46.765625 13.65625 46.765625 13.011719 46.464844 12.492188 C 46.160156 11.972656 45.601562 11.65625 45 11.667969 Z M 5 23.332031 C 4.398438 23.324219 3.839844 23.640625 3.535156 24.160156 C 3.234375 24.679688 3.234375 25.320312 3.535156 25.839844 C 3.839844 26.359375 4.398438 26.675781 5 26.667969 L 45 26.667969 C 45.601562 26.675781 46.160156 26.359375 46.464844 25.839844 C 46.765625 25.320312 46.765625 24.679688 46.464844 24.160156 C 46.160156 23.640625 45.601562 23.324219 45 23.332031 Z M 5 35 C 4.398438 34.992188 3.839844 35.308594 3.535156 35.828125 C 3.234375 36.34375 3.234375 36.988281 3.535156 37.507812 C 3.839844 38.027344 4.398438 38.34375 5 38.332031 L 45 38.332031 C 45.601562 38.34375 46.160156 38.027344 46.464844 37.507812 C 46.765625 36.988281 46.765625 36.34375 46.464844 35.828125 C 46.160156 35.308594 45.601562 34.992188 45 35 Z M 5 35 "/>
</g>
</svg>
