<?xml version="1.0" encoding="UTF-8"?>
<svg xmlns="http://www.w3.org/2000/svg" xmlns:xlink="http://www.w3.org/1999/xlink" viewBox="0 0 50 50" width="50px" height="50px">
<g id="surface60272119">
<path style=" stroke:none;fill-rule:nonzero;fill:rgb(100%,100%,100%);fill-opacity:1;" d="M 25 50 C 11.191406 50 0 38.808594 0 25 C 0 11.191406 11.191406 0 25 0 C 38.808594 0 50 11.191406 50 25 C 50 38.808594 38.808594 50 25 50 Z M 25 50 "/>
<path style=" stroke:none;fill-rule:nonzero;fill:rgb(93.725491%,38.82353%,31.764707%);fill-opacity:1;" d="M 34.316406 20 L 28.441406 20 L 28.441406 16.667969 C 28.441406 14.945312 28.582031 13.863281 31.046875 13.863281 L 34.160156 13.863281 L 34.160156 8.5625 C 32.644531 8.40625 31.121094 8.328125 29.597656 8.332031 C 25.074219 8.332031 21.777344 11.09375 21.777344 16.164062 L 21.777344 20 L 16.777344 20 L 16.777344 26.667969 L 21.777344 26.664062 L 21.777344 41.667969 L 28.441406 41.667969 L 28.441406 26.660156 L 33.550781 26.660156 Z M 34.316406 20 "/>
</g>
</svg>
